<?xml version="1.0" encoding="utf-8"?>
<!-- Generator: Adobe Illustrator 26.2.1, SVG Export Plug-In . SVG Version: 6.00 Build 0)  -->
<svg version="1.1" id="圖層_1" xmlns="http://www.w3.org/2000/svg" xmlns:xlink="http://www.w3.org/1999/xlink" x="0px" y="0px"
	 viewBox="0 0 333 198" style="enable-background:new 0 0 333 198;" xml:space="preserve">
<style type="text/css">
	.st0{clip-path:url(#SVGID_00000060030519559004835630000009421666650727020991_);}
	.st1{fill:#99E3FF;fill-opacity:0.29;}
	.st2{clip-path:url(#SVGID_00000170963801884763012600000001092441271278324104_);}
</style>
<g>
	<defs>
		<rect id="SVGID_1_" y="110.1" width="333" height="87.3"/>
	</defs>
	<clipPath id="SVGID_00000114751798682245956590000014180855987661960835_">
		<use xlink:href="#SVGID_1_"  style="overflow:visible;"/>
	</clipPath>
	<g style="clip-path:url(#SVGID_00000114751798682245956590000014180855987661960835_);">
		<path class="st1" d="M3,138.8c0.2,1.7,2,2.9,4.2,2.8c2.1-0.1,3.8-1.6,3.6-3.3l-1.5-14c32.6,45.1,93.7,73,160.5,73
			c68.3,0,130.7-29.1,162.7-76.1c1-1.5,0.3-3.3-1.6-4.1c-1.9-0.8-4.3-0.2-5.3,1.3c-30.7,44.9-90.4,72.9-155.8,72.9
			c-63.1,0-120.8-25.9-152.3-68l12.7,4.7c1.9,0.7,4.3,0.1,5.2-1.5c0.9-1.5,0.1-3.3-1.9-4L0,110.1L3,138.8z"/>
	</g>
</g>
<g>
	<defs>
		<rect id="SVGID_00000047019728911999567560000018234968709236277679_" y="-18" width="333" height="87.3"/>
	</defs>
	<clipPath id="SVGID_00000163775386003647602150000016991021807878528191_">
		<use xlink:href="#SVGID_00000047019728911999567560000018234968709236277679_"  style="overflow:visible;"/>
	</clipPath>
	<g style="clip-path:url(#SVGID_00000163775386003647602150000016991021807878528191_);">
		<path class="st1" d="M330,40.6c-0.2-1.7-2-2.9-4.2-2.8c-2.1,0.1-3.8,1.6-3.6,3.3l1.5,14C291.1,9.9,230-18,163.2-18
			C94.8-18,32.5,11.1,0.5,58.1c-1,1.5-0.3,3.3,1.6,4.1C4,63,6.4,62.4,7.4,60.9C38.1,16,97.7-11.9,163.2-11.9
			c63.1,0,120.8,25.9,152.3,68l-12.7-4.7c-1.9-0.7-4.3-0.1-5.2,1.5c-0.9,1.5-0.1,3.3,1.9,4L333,69.3L330,40.6z"/>
	</g>
</g>
</svg>
