<?xml version="1.0" encoding="utf-8"?>
<!-- Generator: Adobe Illustrator 26.2.1, SVG Export Plug-In . SVG Version: 6.00 Build 0)  -->
<svg version="1.1" id="圖層_1" xmlns="http://www.w3.org/2000/svg" xmlns:xlink="http://www.w3.org/1999/xlink" x="0px" y="0px"
	 viewBox="0 0 432 381" style="enable-background:new 0 0 432 381;" xml:space="preserve">
<style type="text/css">
	.st0{opacity:0.25;}
	.st1{clip-path:url(#SVGID_00000095335502310110074080000008395979191925034394_);}
	.st2{fill:#FFD8D8;}
</style>
<g class="st0">
	<g>
		<defs>
			<rect id="SVGID_1_" x="8" y="-20" width="416" height="450"/>
		</defs>
		<clipPath id="SVGID_00000159462050745246053930000011225697735492326285_">
			<use xlink:href="#SVGID_1_"  style="overflow:visible;"/>
		</clipPath>
		<g style="clip-path:url(#SVGID_00000159462050745246053930000011225697735492326285_);">
			<path class="st2" d="M403.5,131.8c-0.7-1.5-2.5-2-4-1.3c-1.5,0.7-2.1,2.5-1.3,4c13.3,27.5,19.9,57,19.9,87.7
				c0,111.4-90.7,202.1-202.1,202.1S13.9,333.5,13.9,222C13.9,110.6,104.5,20,216,20c23.6,0,46.7,4.1,68.6,12l-58.2,17.3
				c-1.6,0.4-2.5,2-1.9,3.7c0.4,1.3,1.6,2.1,2.8,2.1c0.3,0,0.6,0,0.9-0.1l72.9-21.7l-55.2-52.4c-1.2-1.2-3.1-1-4.1,0.1
				c-1.2,1.2-1,3.1,0.1,4.1L285,25.8c-22.1-7.8-45.3-11.7-69-11.7C101.3,14.1,8,107.4,8,222C8,336.7,101.3,430,216,430
				S424,336.7,424,222C424,190.4,417.1,160.1,403.5,131.8z"/>
			<path class="st2" d="M198.3,213c-0.6-0.7-1.3-1-2.2-1h-41.7c12.6-8.5,23.9-17.9,33.4-28c11.9-12.4,19.2-25.8,21.7-39.7
				c0.6-2.9,0.9-6.1,0.9-9.7c0-11.3-3.8-20.5-11.3-27.5c-7.5-6.9-18.9-10.5-34.4-10.5c-15.7,0-29.9,4.7-41.9,13.9
				c-12.2,9.2-20.4,23.4-24.3,42.2c-0.1,0.9,0,1.8,0.6,2.5c0.6,0.7,1.5,1,2.3,1h39.1c1.5,0,2.6-1,2.9-2.3c1.3-6.6,3.1-11.3,5.1-13.9
				c1.9-2.3,4.4-3.5,7.5-3.5c4.5,0,6.3,1.8,6.3,6.3c0,0.4,0,1.6-0.4,4.1c-1,5.9-4.8,12.4-11.4,19.5c-6.9,7.3-15.1,14.8-24.5,21.8
				c-9.5,7.2-22,16.1-37.1,26.7c-0.6,0.4-1,1.2-1.2,1.9l-5.4,30.3c-0.1,0.9,0.1,1.8,0.6,2.3c0.4,0.6,1.3,1,2.2,1h105.2
				c1.5,0,2.6-1,2.9-2.5l5.7-32.8C199,214.4,198.7,213.6,198.3,213z M187.7,244.6H88.6l4.5-25.6c14.6-10.2,27-19,36.3-26.1
				c9.7-7.3,18.2-14.8,25.2-22.6c7.3-7.9,11.7-15.5,12.9-22.7c0.3-2.3,0.4-4,0.4-4.8c0-7.8-4.4-12.2-12.2-12.2
				c-4.8,0-8.9,1.9-12,5.6c-2.5,3.1-4.4,7.8-5.9,14.2h-33.1c4-15.5,11.1-27.4,21.4-35.3c11.1-8.5,24-12.7,38.4-12.7
				c13.9,0,24,2.9,30.3,8.9c6.3,6,9.4,13.5,9.4,23.3c0,3.1-0.3,6-0.7,8.5c-2.3,12.9-9.1,25.2-20.2,36.8
				c-11.3,11.7-24.9,22.7-40.6,32.4c-1.2,0.7-1.6,2.1-1.3,3.2c0.3,1.3,1.5,2.2,2.8,2.2h48L187.7,244.6z"/>
			<path class="st2" d="M292.8,99.3l-79.1,90.2c-0.3,0.4-0.6,0.9-0.7,1.5l-5.7,33.4c-0.1,0.9,0.1,1.8,0.6,2.3c0.6,0.7,1.3,1,2.2,1
				h63.3l-3.7,21.2c-0.1,0.9,0.1,1.8,0.6,2.3c0.6,0.7,1.3,1,2.2,1H313c1.5,0,2.6-1,2.9-2.3l4.1-22.3h13.5c1.5,0,2.6-1,2.9-2.5
				l6.2-35c0.1-0.9-0.1-1.8-0.6-2.3c-0.4-0.6-1.3-1-2.2-1h-12.5l14.8-85.2c0.1-0.9-0.1-1.8-0.6-2.3c-0.4-0.6-1.3-1-2.2-1H295
				C294.1,98.3,293.2,98.8,292.8,99.3z M335.7,104.2l-14.8,85.2c-0.1,0.9,0.1,1.8,0.6,2.3c0.4,0.6,1.3,1,2.2,1h12.5l-5.1,29.1h-13.5
				c-1.5,0-2.6,1-2.9,2.3l-4.1,22.3h-34.7l3.7-21.2c0.1-0.9-0.1-1.8-0.6-2.3c-0.6-0.7-1.3-1-2.2-1h-63.3l5-29.1l77.8-88.6H335.7z"/>
			<path class="st2" d="M257.6,192.8H286c1.5,0,2.6-1,2.9-2.5l7.6-43.1c0.3-1.3-0.4-2.6-1.6-3.2s-2.6-0.3-3.5,0.7l-36,43.2
				c-0.7,0.9-0.9,2.1-0.4,3.1C255.4,192.2,256.4,192.8,257.6,192.8z M288.8,157.2l-5.3,29.9h-19.8L288.8,157.2z"/>
			<path class="st2" d="M119.8,333.9h12.9c1.6,0,2.9-1.3,2.9-2.9v-52.9c0-1.6-1.3-2.9-2.9-2.9h-12.9c-1.6,0-2.9,1.3-2.9,2.9v17.7
				h-14.2v-17.7c0-1.6-1.3-2.9-2.9-2.9H86.8c-1.6,0-2.9,1.3-2.9,2.9V331c0,1.6,1.3,2.9,2.9,2.9h12.9c1.6,0,2.9-1.3,2.9-2.9v-18.9
				h14.2V331C116.8,332.6,118.2,333.9,119.8,333.9z M99.7,306.2c-1.6,0-2.9,1.3-2.9,2.9v18.9h-7v-47h7v17.7c0,1.6,1.3,2.9,2.9,2.9
				h20.1c1.6,0,2.9-1.3,2.9-2.9v-17.7h7v47h-7v-18.9c0-1.6-1.3-2.9-2.9-2.9H99.7z"/>
			<path class="st2" d="M182,278.3c-4.5-2.5-9.7-3.8-15.1-3.8c-5.4,0-10.5,1.3-15.1,3.8c-4.5,2.5-8.2,6.1-11,10.7
				c-2.6,4.5-4.1,9.8-4.1,15.4c0,5.7,1.3,10.8,4.1,15.5c2.6,4.5,6.4,8.2,11,10.7c4.5,2.5,9.7,3.8,15.1,3.8c5.4,0,10.5-1.3,15.1-3.8
				c4.5-2.5,8.2-6.1,10.8-10.7c2.6-4.5,4-9.8,4-15.4c0-5.7-1.3-10.8-4-15.4C190.2,284.4,186.6,280.8,182,278.3z M187.7,316.8
				c-2.2,3.7-5.1,6.6-8.6,8.6c-3.7,2.1-7.8,3.1-12.2,3.1c-4.4,0-8.5-1-12.3-3.1c-3.7-2-6.6-5-8.8-8.6c-2.2-3.7-3.2-7.9-3.2-12.4
				c0-4.7,1-8.8,3.2-12.4c2.2-3.7,5.1-6.6,8.8-8.6c3.7-2,7.8-3.1,12.3-3.1c4.5,0,8.5,1,12.3,3.1c3.7,2.1,6.6,5,8.6,8.5
				c2.1,3.7,3.2,7.9,3.2,12.4C191.1,308.7,189.9,313.1,187.7,316.8z"/>
			<path class="st2" d="M166.9,286c-5.1,0-9.2,1.8-12.3,5.1c-3.1,3.4-4.5,7.8-4.5,13.2s1.5,9.8,4.5,13.2c3.1,3.4,7.3,5.1,12.3,5.1
				c5.1,0,9.2-1.8,12.3-5.1c3.1-3.4,4.5-7.8,4.5-13c0-5.4-1.5-9.8-4.5-13.2C176,287.8,171.9,286,166.9,286z M174.8,313.6
				c-1.9,2.2-4.5,3.2-7.9,3.2c-3.4,0-6-1-8.1-3.2c-2.1-2.2-3.1-5.3-3.1-9.2c0-4,1-7,3.1-9.2c1.9-2.2,4.5-3.2,8.1-3.2
				c3.4,0,6,1,7.9,3.2c2.1,2.2,3.1,5.3,3.1,9.2C177.9,308.3,176.9,311.2,174.8,313.6z"/>
			<path class="st2" d="M210.1,331.6c3.7,1.8,7.9,2.8,12.5,2.8c4.5,0,8.8-0.9,12.6-2.8c3.8-1.9,7-4.7,9.4-8.5
				c2.3-3.7,3.5-8.2,3.5-13.5v-31.5c0-1.6-1.3-2.9-2.9-2.9h-12.9c-1.6,0-2.9,1.3-2.9,2.9v31.6c0,2.3-0.6,4.1-1.6,5.3
				c-1,1.2-2.6,1.6-4.8,1.6c-2.2,0-3.7-0.6-4.7-1.6c-1-1.2-1.6-2.9-1.6-5.3v-31.6c0-1.6-1.3-2.9-2.9-2.9h-12.9
				c-1.6,0-2.9,1.3-2.9,2.9v31.5c0,5.3,1,9.8,3.2,13.5C203.4,326.9,206.3,329.8,210.1,331.6z M203.8,281.1h7v28.7c0,4,1,7,3.1,9.2
				c2.2,2.3,5.1,3.5,9.1,3.5c3.8,0,6.9-1.2,9.1-3.5c2.2-2.2,3.2-5.4,3.2-9.4v-28.7h7v28.6c0,4.1-0.9,7.6-2.6,10.4
				c-1.8,2.8-4,4.8-6.9,6.3c-2.9,1.5-6.3,2.2-10.1,2.2c-3.7,0-7-0.7-9.8-2.2c-2.8-1.3-5-3.4-6.6-6.3c-1.6-2.8-2.5-6.3-2.5-10.5
				V281.1z"/>
			<path class="st2" d="M294.7,305.8c2.3-3.2,3.5-7,3.5-11.1c0-3.7-0.9-7-2.6-10c-1.8-3.1-4.4-5.4-7.8-7.2c-3.4-1.6-7.3-2.5-12-2.5
				h-21.7c-1.6,0-2.9,1.3-2.9,2.9v52.9c0,1.6,1.3,2.9,2.9,2.9H267c1.6,0,2.9-1.3,2.9-2.9v-14.1l8.6,15.5c0.6,0.9,1.5,1.5,2.6,1.5
				h14.5c1,0,2-0.6,2.5-1.5c0.6-0.9,0.6-2.1,0-2.9l-10.4-18C290.6,310,292.9,308.3,294.7,305.8z M289.8,302.4
				c-1.6,2.2-4,3.8-7.2,4.8c-0.9,0.3-1.6,0.9-1.9,1.8s-0.3,1.8,0.1,2.5l9.7,16.5h-7.8l-10.1-18.5c-0.6-0.9-1.5-1.5-2.6-1.5H267
				c-1.6,0-2.9,1.3-2.9,2.9v17h-7v-47h18.7c3.7,0,6.9,0.6,9.4,1.9c2.5,1.2,4.2,2.8,5.4,4.8c1.2,2,1.8,4.4,1.8,7
				C292.3,297.6,291.4,300.1,289.8,302.4z"/>
			<path class="st2" d="M275,285.9H267c-1.6,0-2.9,1.3-2.9,2.9v13c0,1.6,1.3,2.9,2.9,2.9h8.1c3.1,0,5.6-0.9,7.3-2.6
				c1.8-1.8,2.6-4.1,2.6-7c0-2.8-0.9-5.1-2.6-6.9C280.6,286.6,278.1,285.9,275,285.9z M278.3,298c-0.7,0.7-2.2,0.9-3.2,0.9h-5.1
				v-7.2h5.1c1,0,2.5,0.1,3.2,0.9c0.4,0.4,0.9,1,0.9,2.6C279.1,297.2,278.5,297.8,278.3,298z"/>
			<path class="st2" d="M320.7,290.6c1.2,0,1.9,0.3,2.5,0.7c0.3,0.3,0.7,0.9,0.9,1.9c0.1,1.6,1.3,2.8,2.9,2.8h13.9
				c0.7,0,1.6-0.3,2.1-0.9c0.6-0.6,0.9-1.3,0.7-2.2c-0.3-5.9-2.6-10.5-6.9-13.8c-4.1-3.2-9.4-4.8-15.8-4.8c-6.3,0-11.7,1.6-15.7,4.8
				c-4.2,3.4-6.4,8.1-6.4,13.9c0,4,1,7.3,2.9,9.8c1.8,2.5,4.1,4.2,6.6,5.6c2.3,1.2,5.3,2.2,8.8,3.4c2.2,0.7,4,1.3,5.1,1.8
				c0.9,0.4,1.8,0.9,2.3,1.5c0.3,0.1,0.4,0.4,0.4,1.2c0,0.9-0.3,1.2-0.6,1.3c-0.6,0.4-1.5,0.7-2.6,0.7s-1.9-0.3-2.6-0.7
				c-0.6-0.6-0.9-1.3-1-2.6c-0.1-1.5-1.5-2.6-2.9-2.6h-13.8c-0.7,0-1.6,0.3-2.1,0.9c-0.4,0.6-0.9,1.3-0.9,2.2
				c0.1,4.1,1.3,7.6,3.5,10.5c2.2,2.9,5,5.1,8.6,6.6c3.4,1.5,7.3,2,11.6,2c4.4,0,8.3-0.9,11.6-2.5c3.4-1.8,6-4.1,7.9-6.9
				c1.8-2.9,2.8-6.1,2.8-9.8c0-3.8-1-7-2.9-9.5c-1.8-2.3-4.1-4.2-6.6-5.4c-2.2-1.2-5.1-2.2-8.8-3.5c-3.2-1-5.6-2-6.9-2.8
				c-0.9-0.6-1-1-1-1.5c0-1,0.3-1.3,0.4-1.3C319.1,291,319.6,290.6,320.7,290.6z M316.5,298.9c1.8,1,4.5,2.2,8.1,3.4
				c3.2,1.2,6,2.2,7.9,3.2c1.8,0.9,3.2,2.1,4.5,3.8c1.2,1.5,1.8,3.5,1.8,6c0,2.5-0.6,4.7-1.9,6.6c-1.3,2-3.1,3.5-5.4,4.8
				c-2.5,1.2-5.6,1.9-9.1,1.9c-3.5,0-6.6-0.6-9.2-1.6c-2.6-1-4.5-2.6-6.2-4.5c-0.9-1.2-1.6-2.6-1.9-4.2h8.1c0.4,1.5,1.3,2.8,2.5,3.8
				c1.8,1.5,3.8,2.3,6.4,2.3c2.6,0,4.7-0.6,6.3-1.9c1.8-1.5,2.8-3.5,2.8-6c0-2.1-0.7-4-2.2-5.3c-1.2-1.2-2.5-2.1-4.1-2.6
				c-1.5-0.6-3.2-1.3-5.7-2c-3.2-1-5.9-2.1-7.9-2.9c-1.8-0.9-3.2-2-4.5-3.8c-1.2-1.5-1.8-3.7-1.8-6.3c0-4,1.3-7,4.2-9.2
				c3.1-2.3,7-3.5,12.2-3.5c5.1,0,9.2,1.2,12.3,3.5c2.1,1.6,3.5,3.8,4.1,6.4h-8.2c-0.4-1.3-1.3-2.5-2.3-3.4
				c-1.8-1.5-3.8-2.2-6.3-2.2c-2.3,0-4.2,0.7-5.7,1.9c-1.2,1-2.5,2.8-2.5,5.9C312.7,295.1,314,297.5,316.5,298.9z"/>
		</g>
	</g>
</g>
</svg>
