<svg width="50" height="50" viewBox="0 0 50 50" fill="none" xmlns="http://www.w3.org/2000/svg">
<g clip-path="url(#clip0_41_96)">
<mask id="mask0_41_96" style="mask-type:alpha" maskUnits="userSpaceOnUse" x="14" y="9" width="23" height="43">
<path d="M36.3754 9.25269H14.2349V51.4128H36.3754V9.25269Z" fill="black"/>
</mask>
<g mask="url(#mask0_41_96)">
<path d="M34.7117 31.9217L35.9573 25.516H28.6619V19.9858C28.6619 18.6833 29.0178 17.5712 29.7188 16.7705C30.564 15.7936 31.8541 15.2972 33.5302 15.2972H36.3772V9.6993C34.5717 9.42549 32.7495 9.27626 30.9235 9.25269C27.9769 9.25269 25.5231 10.0872 23.8238 11.6655C22.0213 13.3417 21.1067 15.758 21.1067 18.8523V25.258H14.3256L14.2349 31.9217H21.1103L20.9964 51.1619C23.4168 51.4953 25.8714 51.4953 28.2918 51.1619L28.4003 31.9199L34.7117 31.9217Z" fill="#1A1C2E"/>
</g>
</g>
<defs>
<clipPath id="clip0_41_96">
<rect width="50" height="50" fill="white"/>
</clipPath>
</defs>
</svg>
