<svg width="50" height="50" viewBox="0 0 50 50" fill="none" xmlns="http://www.w3.org/2000/svg">
<path d="M31.5535 10.625H18.4642C14.0357 10.625 10.4642 14.2143 10.4642 18.625V31.7143C10.4642 36.1429 14.0535 39.7143 18.4642 39.7143H31.5535C35.9821 39.7143 39.5535 36.125 39.5535 31.7143V18.625C39.5535 14.2143 35.9642 10.625 31.5535 10.625ZM36.9999 30.5714C36.9999 34.2143 34.0357 37.1786 30.3928 37.1786H19.5892C15.9464 37.1786 12.9821 34.2143 12.9821 30.5714V19.7679C12.9821 16.125 15.9464 13.1607 19.5892 13.1607H30.3928C34.0357 13.1607 36.9999 16.125 36.9999 19.7679V30.5714Z" fill="#1C1C30"/>
<path d="M30.3036 19.9285L30.2321 19.8571L30.1786 19.8035C28.8036 18.4285 26.9464 17.6606 25 17.6606C20.875 17.6785 17.5536 21.0535 17.5893 25.1785C17.5893 25.1785 17.5893 25.1785 17.5893 25.1964C17.5893 27.1785 18.375 29.0892 19.7678 30.5178C21.1607 31.9106 23.0357 32.7142 25.0178 32.6964C29.1786 32.6071 32.4821 29.1606 32.3928 24.9999C32.3571 23.0892 31.6071 21.2856 30.3036 19.9285ZM25 30.1071C22.2678 30.1428 20.0357 27.9642 20 25.2321C19.9643 22.4999 22.1428 20.2678 24.875 20.2321C27.6071 20.1964 29.8393 22.3749 29.875 25.1071V25.1785C29.8928 27.8749 27.7143 30.0892 25 30.1071Z" fill="#1B1C2F"/>
<path d="M34.6249 17.3213C34.6249 18.3035 33.8392 19.107 32.857 19.107C32.3928 19.107 31.9285 18.9285 31.607 18.5892C30.9106 17.8928 30.9106 16.7678 31.607 16.0713C31.9463 15.732 32.3928 15.5535 32.857 15.5535C33.2678 15.5535 33.6606 15.6963 33.982 15.9642L34.0178 15.9999C34.0713 16.0535 34.1249 16.107 34.1785 16.1606L34.2142 16.1963C34.482 16.4999 34.6249 16.9106 34.6249 17.3213Z" fill="#1B1C2F"/>
</svg>
