<svg width="50" height="50" viewBox="0 0 50 50" fill="none" xmlns="http://www.w3.org/2000/svg">
<path d="M11.2321 23.9107L28.3393 16.8571C30.0357 16.125 35.75 13.7678 35.75 13.7678C35.75 13.7678 38.3928 12.7321 38.1786 15.2321C38.1071 16.2678 37.5178 19.8571 36.9286 23.75L35.0893 35.2678C35.0893 35.2678 34.9464 36.9643 33.6964 37.25C32.4464 37.5357 30.3928 36.2143 30.0178 35.9285C29.7321 35.7143 24.5178 32.4107 22.6071 30.7857C22.0893 30.3393 21.5 29.4643 22.6786 28.4285C25.3214 26 28.4821 23 30.3928 21.0893C31.2678 20.2143 32.1607 18.1607 28.4821 20.6428L18.125 27.625C18.125 27.625 16.9464 28.3571 14.75 27.6964C12.5536 27.0357 9.98213 26.1607 9.98213 26.1607C9.98213 26.1607 8.23213 25.0893 11.2321 23.9107Z" fill="#1C1C30"/>
</svg>
