<svg width="50" height="50" viewBox="0 0 50 50" fill="none" xmlns="http://www.w3.org/2000/svg">
<path d="M25 9.25C16.4548 9.25 9.5 16.2048 9.5 24.75C9.5 27.4187 10.1874 30.047 11.4948 32.3652L9.52696 39.3874C9.45957 39.6165 9.52696 39.8726 9.6887 40.0343C9.82348 40.1691 9.9987 40.2365 10.1739 40.2365C10.2278 40.2365 10.2817 40.2365 10.3357 40.223L17.6813 38.4035C19.9187 39.6165 22.4526 40.25 25 40.25C33.5452 40.25 40.5 33.2952 40.5 24.75C40.5 16.2048 33.5452 9.25 25 9.25ZM32.8039 30.2222C32.467 31.1387 30.8765 31.9743 30.1217 32.0957C29.4343 32.19 28.5717 32.2439 27.6148 31.9339C27.0352 31.7452 26.2939 31.5161 25.3504 31.1117C21.3609 29.4135 18.7461 25.4374 18.5574 25.1813C18.3417 24.9117 16.913 23.0383 16.913 21.1109C16.913 19.1835 17.9374 18.2265 18.3013 17.8357C18.6652 17.4448 19.0965 17.3504 19.3661 17.3504C19.6357 17.3504 19.8917 17.3504 20.1343 17.3639C20.377 17.3774 20.7004 17.2696 21.0239 18.0378C21.3609 18.8196 22.1561 20.7604 22.2504 20.9626C22.3448 21.1648 22.4122 21.3939 22.2774 21.65C22.1426 21.9061 22.0752 22.0813 21.8865 22.3104C21.6978 22.5396 21.4687 22.8226 21.2935 22.9978C21.0913 23.2 20.8891 23.4022 21.1183 23.793C21.3474 24.1839 22.1426 25.4778 23.3287 26.5157C24.8517 27.85 26.1322 28.2678 26.523 28.47C26.9274 28.6722 27.1565 28.6317 27.3857 28.3757C27.6148 28.1061 28.383 27.23 28.6391 26.8391C28.9087 26.4483 29.1648 26.5157 29.5287 26.637C29.8926 26.7717 31.847 27.7152 32.2513 27.9174C32.6422 28.1196 32.9117 28.2139 33.0196 28.3757C33.1274 28.5104 33.1274 29.3057 32.8039 30.2222Z" fill="#20253C"/>
</svg>
