<?xml version="1.0" encoding="utf-8"?>
<!-- Generator: Adobe Illustrator 26.2.1, SVG Export Plug-In . SVG Version: 6.00 Build 0)  -->
<svg version="1.1" id="圖層_1" xmlns="http://www.w3.org/2000/svg" xmlns:xlink="http://www.w3.org/1999/xlink" x="0px" y="0px"
	 viewBox="0 0 90 90" style="enable-background:new 0 0 90 90;" xml:space="preserve">
<style type="text/css">
	.st0{fill:#C7F0FF;}
</style>
<path class="st0" d="M74.4,30C74.4,30,74.4,30,74.4,30c-0.5-7-3.5-13.6-8.5-18.6c-5.6-5.6-13-8.6-20.8-8.6c-7.9,0-15.3,3.1-20.8,8.6
	c-5,5-8,11.6-8.5,18.6c0,0,0,0,0,0c-1.8,0.8-3.4,1.9-4.7,3.2C8.1,36,6.5,39.7,6.5,43.9c0,6.2,3.8,11.6,9.2,13.9c0,0,0,0,0,0
	c1.6,0.7,3.4,1.1,5.3,1.2c-0.2-1.1-0.2-2.2-0.2-3.4V32.2c0-1.1,0.1-2.3,0.2-3.4C22.6,17,32.8,7.9,45,7.9c12.2,0,22.4,9.1,24.1,20.9
	c0.2,1.1,0.2,2.2,0.2,3.4v23.3c0,1.1-0.1,2.3-0.2,3.4c-1.3,9.6-8.3,17.4-17.4,20c-1-1.4-2.6-2.3-4.4-2.3c-2.9,0-5.3,2.4-5.3,5.3
	c0,2.9,2.4,5.3,5.3,5.3c2.1,0,4-1.2,4.8-3.1c5.2-1.3,9.9-3.9,13.8-7.8c5-5,8-11.6,8.5-18.6c0,0,0,0,0,0c1.8-0.8,3.4-1.9,4.7-3.2
	c2.7-2.7,4.4-6.5,4.4-10.7C83.5,37.7,79.8,32.3,74.4,30z"/>
<g>
	<path class="st0" d="M30.9,43.5c0.7-1,1.1-1.9,1.1-2.8v-0.4c0-0.7-0.2-1.2-0.6-1.7c-0.4-0.4-0.9-0.6-1.5-0.6
		c-0.6,0-1.1,0.2-1.5,0.6c-0.4,0.4-0.6,1-0.6,1.8v0.5h-3.7v-0.7c0-1,0.2-2,0.7-2.8c0.5-0.8,1.2-1.5,2-1.9c0.9-0.5,1.9-0.7,3.1-0.7
		c1.2,0,2.2,0.2,3.1,0.7c0.9,0.5,1.6,1.1,2,1.9c0.5,0.8,0.7,1.7,0.7,2.7v0.5c0,0.9-0.2,1.7-0.5,2.4c-0.3,0.7-0.8,1.5-1.4,2.3l-5,6.5
		h6.8v3.3H24.3v-3L30.9,43.5z"/>
	<path class="st0" d="M49.7,52v3.2h-3.8V52h-7.7v-3.3l5.7-13.5h3.8L42,48.6h3.9v-4.7h3.8v4.7h1.6V52H49.7z"/>
	<path class="st0" d="M57.5,35.1v6.3c0.4-0.5,1-0.9,1.6-1.1c0.6-0.3,1.2-0.4,1.9-0.4c1.5,0,2.7,0.5,3.6,1.4c0.9,1,1.3,2.3,1.3,4v9.8
		h-3.6v-9.4c0-0.9-0.2-1.5-0.6-2s-1-0.7-1.7-0.7c-0.7,0-1.3,0.2-1.7,0.7c-0.5,0.5-0.7,1.1-0.7,2v9.4h-3.6v-20H57.5z"/>
</g>
</svg>
