<?xml version="1.0" encoding="utf-8"?>
<!-- Generator: Adobe Illustrator 26.2.1, SVG Export Plug-In . SVG Version: 6.00 Build 0)  -->
<svg version="1.1" id="圖層_1" xmlns="http://www.w3.org/2000/svg" xmlns:xlink="http://www.w3.org/1999/xlink" x="0px" y="0px"
	 viewBox="0 0 90 90" style="enable-background:new 0 0 90 90;" xml:space="preserve">
<style type="text/css">
	.st0{fill:#C7F0FF;}
</style>
<path class="st0" d="M25.7,36.6l15,19.2c0,0,34-53.2,36.5-54l0.2,13.3c0,0-21.2,34-32.3,60.1L20.8,50.9L25.7,36.6z"/>
<path class="st0" d="M74.7,36.3c1.6,3.8,2.5,8,2.5,12.4c0,17.8-14.4,32.2-32.2,32.2S12.8,66.5,12.8,48.7S27.2,16.5,45,16.5
	c3.6,0,7,0.6,10.2,1.7c1.6-2.4,3-4.5,4.3-6.4C55,10,50.1,9,45,9C23.1,9,5.4,26.8,5.4,48.7c0,21.9,17.8,39.6,39.6,39.6
	s39.6-17.8,39.6-39.6c0-7.3-2-14.2-5.5-20.1C77.9,30.9,76.3,33.5,74.7,36.3z"/>
</svg>
