<?xml version="1.0" encoding="utf-8"?>
<!-- Generator: Adobe Illustrator 26.2.1, SVG Export Plug-In . SVG Version: 6.00 Build 0)  -->
<svg version="1.1" id="圖層_1" xmlns="http://www.w3.org/2000/svg" xmlns:xlink="http://www.w3.org/1999/xlink" x="0px" y="0px"
	 viewBox="0 0 90 90" style="enable-background:new 0 0 90 90;" xml:space="preserve">
<style type="text/css">
	.st0{fill:#C7F0FF;}
</style>
<path id="Combined-Shape_153_" class="st0" d="M59.9,35.7v-9.3c0-8.2-6.7-14.9-14.9-14.9s-14.9,6.7-14.9,14.9v9.3H59.9z M22.7,35.7
	v-9.3C22.7,14,32.7,4,45,4s22.3,10,22.3,22.3v9.3c4.1,0,7.4,3.3,7.4,7.4v20.5C74.8,76,64.8,86,52.4,86H37.6
	c-12.3,0-22.3-10-22.3-22.3V43.1C15.2,39,18.5,35.7,22.7,35.7z M48.7,67.3l0-4.7c0-1.1,0.5-2.1,1.3-2.8c0.1-0.1,0.2-0.2,0.3-0.2
	c2.9-2.9,2.9-7.6,0-10.5c-2.9-2.9-7.6-2.9-10.5,0c-2.9,2.9-2.9,7.6,0,10.5c0.1,0.1,0.2,0.2,0.3,0.2c0.8,0.7,1.3,1.7,1.3,2.8v4.7
	c0,2.1,1.7,3.7,3.7,3.7S48.7,69.4,48.7,67.3z"/>
</svg>
