<?xml version="1.0" encoding="utf-8"?>
<!-- Generator: Adobe Illustrator 26.2.1, SVG Export Plug-In . SVG Version: 6.00 Build 0)  -->
<svg version="1.1" id="圖層_1" xmlns="http://www.w3.org/2000/svg" xmlns:xlink="http://www.w3.org/1999/xlink" x="0px" y="0px"
	 viewBox="0 0 90 90" style="enable-background:new 0 0 90 90;" xml:space="preserve">
<style type="text/css">
	.st0{fill:#0090FF;}
</style>
<path class="st0" d="M83.5,40.9l-4.2-4.3c-1.3-1.3-1.9-3.1-1.6-4.9l0.8-5.9c0.4-3.2-1.7-6.1-4.8-6.6l-5.9-1
	c-1.8-0.3-3.3-1.4-4.2-3.1l-2.8-5.3c-1.5-2.8-5-3.9-7.8-2.5l-5.4,2.6c-1.6,0.8-3.6,0.8-5.2,0L37,7.1c-2.9-1.4-6.3-0.3-7.8,2.5
	L26.4,15c-0.9,1.6-2.4,2.7-4.2,3.1l-5.9,1c-3.1,0.6-5.3,3.5-4.8,6.6l0.8,5.9c0.3,1.8-0.3,3.6-1.6,4.9l-4.2,4.3
	c-2.2,2.3-2.2,5.9,0,8.2l4.2,4.3c1.3,1.3,1.9,3.1,1.6,4.9l-0.8,5.9c-0.4,3.2,1.7,6.1,4.8,6.6l5.9,1c1.8,0.3,3.3,1.4,4.2,3.1l2.8,5.3
	c1.5,2.8,5,3.9,7.8,2.5l5.4-2.6c1.6-0.8,3.6-0.8,5.2,0l5.4,2.6c2.9,1.4,6.3,0.3,7.8-2.5l2.8-5.3c0.9-1.6,2.4-2.7,4.2-3.1l5.9-1
	c3.1-0.6,5.3-3.5,4.8-6.6l-0.8-5.9c-0.3-1.8,0.3-3.6,1.6-4.9l4.2-4.3C85.7,46.8,85.7,43.2,83.5,40.9z M33.3,46.9
	c-5.1,0-7.4-3.5-7.4-7.5v-2c0-3.7,1.4-6.7,5.1-7.5c0.6-0.2,0.8,0.1,0.6,0.5c-0.7,1.2-0.4,2.9,0.8,3.1C31.1,34.1,31,36,31,38.2
	c0,2.8,0.2,5.1,2.3,5.1c2,0,2.2-2.3,2.2-5.1c0-2.4-0.2-4.4-1.4-4.9c-1-0.4-2.3,0.2-2.3-1.7c0.1-1.3,0.5-2.2,2.2-2.1
	c4.9,0.3,6.7,3.5,6.7,7.7v2C40.6,43.4,38.3,46.9,33.3,46.9z M40.4,59.3c-0.8,1.5-2,2.9-3.7,2.2c-2.1-1.2-0.9-2.8-0.3-4.1l13.4-27.2
	c0.5-1,1.1-2.3,2.6-1.9c0.3,0,0.5,0.1,0.8,0.3c0.7,0.4,1.1,1.1,1.1,1.6c0,0.4-0.2,0.9-0.6,1.7L40.4,59.3z M64.1,52.9
	c0,4-2.3,7.5-7.3,7.5c-5.1,0-7.4-3.5-7.4-7.5v-2c0-3.7,1.4-6.7,5.1-7.5c0.6-0.2,0.8,0.1,0.6,0.5c-0.7,1.2-0.4,2.9,0.8,3
	c-1.1,0.6-1.3,2.6-1.3,4.9c0,2.8,0.2,5.1,2.3,5.1c2,0,2.2-2.3,2.2-5.1c0-2.4-0.2-4.4-1.4-4.9c-1-0.4-2.3,0.2-2.3-1.7
	c0.1-1.3,0.5-2.3,2.2-2c4.9,0.3,6.7,3.5,6.7,7.7v2H64.1z"/>
</svg>
