<?xml version="1.0" encoding="utf-8"?>
<!-- Generator: Adobe Illustrator 26.2.1, SVG Export Plug-In . SVG Version: 6.00 Build 0)  -->
<svg version="1.1" id="圖層_1" xmlns="http://www.w3.org/2000/svg" xmlns:xlink="http://www.w3.org/1999/xlink" x="0px" y="0px"
	 viewBox="0 0 90 90" style="enable-background:new 0 0 90 90;" xml:space="preserve">
<style type="text/css">
	.st0{fill:#0090FF;}
</style>
<path class="st0" d="M45.2,67.7c-3.2,0.7-7,1.1-11.4,1.1c-17.1,0-25.1-5.6-25.1-17.5c0-6.1,4.8-21.2,19.7-29.1
	c1.7-1,3.7-1.5,5.6-1.5c1.8,0,3.6,0.5,5.1,1.5c8.2,5,13.8,12.3,16.8,18.8c1.2,0,2.3,0.2,3.3,0.4c-3.1-7.4-9.1-15.8-18.7-21.6
	c-5.8-3.5-11.5-1.2-13.6,0c-14.4,7.6-21,23-21,31.4c0,13.7,9.1,20.3,27.9,20.3c2.5,0,6.8,0,11.3-1v-2.8H45.2z"/>
<path class="st0" d="M55,57.8c-5.6,0-11.3-1.9-11.3-5.6v-7.1h2.8v7.1c0,1,3.2,2.8,8.5,2.8s8.5-1.8,8.5-2.8v-7.1h2.8v7.1
	C66.3,55.8,60.6,57.8,55,57.8L55,57.8z"/>
<path class="st0" d="M55,64.8c-5.6,0-11.3-1.9-11.3-5.6v-7h2.8v7c0,1,3.2,2.8,8.5,2.8s8.5-1.8,8.5-2.8v-7h2.8v7
	C66.3,62.9,60.6,64.8,55,64.8L55,64.8z"/>
<path class="st0" d="M55,71.9c-5.6,0-11.3-1.9-11.3-5.6v-7.1h2.8v7.1c0,1,3.2,2.8,8.5,2.8s8.5-1.8,8.5-2.8v-7.1h2.8v7.1
	C66.3,70,60.6,71.9,55,71.9L55,71.9z"/>
<path class="st0" d="M55,79c-5.6,0-11.3-1.9-11.3-5.6v-7.1h2.8v7.1c0,1,3.2,2.8,8.5,2.8s8.5-1.8,8.5-2.8v-7.1h2.8v7.1
	C66.3,77,60.6,79,55,79L55,79z"/>
<path class="st0" d="M55,86c-5.6,0-11.3-1.9-11.3-5.6v-7.1h2.8v7.1c0,1,3.2,2.8,8.5,2.8s8.5-1.8,8.5-2.8v-7.1h2.8v7.1
	C66.3,84.1,60.6,86,55,86L55,86z M55,50.7c-5.6,0-11.3-1.9-11.3-5.6c0-3.7,5.7-5.6,11.3-5.6s11.3,1.9,11.3,5.6S60.6,50.7,55,50.7
	L55,50.7z M55,42.3c-5.3,0-8.5,1.8-8.5,2.8s3.2,2.8,8.5,2.8s8.5-1.8,8.5-2.8S60.3,42.3,55,42.3L55,42.3z M74.8,73.3
	c-5.6,0-11.3-1.9-11.3-5.6v-7.1h2.8v7.1c0,1,3.2,2.8,8.5,2.8s8.5-1.8,8.5-2.8v-7.1h2.8v7.1C86.1,71.4,80.4,73.3,74.8,73.3L74.8,73.3
	z"/>
<path class="st0" d="M74.8,80.4c-5.6,0-11.3-1.9-11.3-5.6v-7.1h2.8v7.1c0,1,3.2,2.8,8.5,2.8s8.5-1.8,8.5-2.8v-7.1h2.8v7.1
	C86.1,78.4,80.4,80.4,74.8,80.4L74.8,80.4z M74.8,66.3c-5.6,0-11.3-1.9-11.3-5.6S69.2,55,74.8,55c5.6,0,11.3,1.9,11.3,5.6
	S80.4,66.3,74.8,66.3L74.8,66.3z M74.8,57.8c-5.3,0-8.5,1.8-8.5,2.8s3.2,2.8,8.5,2.8s8.5-1.8,8.5-2.8S80,57.8,74.8,57.8L74.8,57.8z"
	/>
<g>
	<path class="st0" d="M13.2,50.1c-0.1,0-0.3,0-0.4-0.1c-0.8-0.2-1.3-1-1-1.8C15.2,35.9,25.6,27.1,26,26.7c0.6-0.5,1.6-0.4,2.1,0.2
		s0.4,1.6-0.2,2.1c-0.1,0.1-10.2,8.6-13.3,20C14.5,49.6,13.9,50.1,13.2,50.1z"/>
</g>
<g>
	<path class="st0" d="M34.9,57v1.4c0,0.8-0.4,1.1-1,1.1s-1-0.3-1-1.1V57c-4.5,0-7-2.7-7-4.7c0-1.3,0.9-2.2,2.2-2.2
		c1.8,0,2.1,2.6,4.8,3.3v-3.6c0.8,0.2,1.9,0.4,1.9,1.2v2.5c1.3-0.1,2.2-0.6,2.2-1.7c0-1.1-0.9-1.6-1.8-1.9c-1.1-0.3-1.9-0.5-2.8-0.7
		c-4.2-1.2-6.3-2.5-6.3-5.6c0-3.9,3.6-5.8,6.8-5.8v-0.3c0-0.8,0.4-1.1,1-1.1s1,0.3,1,1.1v0.3c1.9,0,6.5,1.3,6.5,4.1
		c0,1.1-0.8,2-2.2,2s-2-1.9-4.3-2.4v3.2c-0.6-0.3-1.9-0.2-1.9-1v-2.3c-1.1,0.1-2.2,0.5-2.2,1.5c0,0.9,0.8,1.5,1.7,1.8
		c1,0.2,2.3,0.5,2.9,0.6c4.4,1.2,6.5,2.9,6.5,6.1C41.9,55.1,38.4,56.9,34.9,57z"/>
</g>
<path class="st0" d="M22.3,11.1c0.1,0.1,0.2,0.1,0.3,0.3c0.5,0.5,1.9,2.9,3.1,4.9c1.1,1.8,1.9,3.2,2.6,4.3c0.8-0.4,1.7-0.7,2.7-1
	c-1-1.5-2.1-3.4-3-4.8c-1-1.8-2.1-3.6-3.4-5.3C27,6.4,32,7.5,37.4,9c2.6,0.7,4.9,1.3,7,0.7c-0.5,0.8-1.3,2.1-2.4,3.9
	c-1,1.7-2.6,4.4-3.9,6.3c0.6,0.2,1.2,0.5,1.8,0.9c0.2,0.1,0.4,0.3,0.7,0.4c0.9-1.4,2.2-3.4,3.8-6.2c1.2-1.9,2.3-3.9,2.7-4.3
	c0.4-0.5,1.4-1.7,0.2-3.1c-0.7-0.9-1.9-1.1-3.6-0.6c-1.4,0.4-3.4-0.1-5.5-0.7C33.4,4.9,25.3,2.6,22,8.7
	C21.4,9.5,21.6,10.5,22.3,11.1z"/>
<path class="st0" d="M61,22L61,22c-0.9,0-1.5-0.7-1.5-1.5v-9.9C59.5,9.7,60.1,9,61,9l0,0c0.9,0,1.5,0.7,1.5,1.5v9.9
	C62.5,21.3,61.9,22,61,22z"/>
<path class="st0" d="M54.5,15.5L54.5,15.5c0-0.9,0.7-1.5,1.5-1.5h10c0.9,0,1.5,0.7,1.5,1.5l0,0c0,0.9-0.7,1.5-1.5,1.5H56
	C55.2,17.1,54.5,16.4,54.5,15.5z"/>
<path class="st0" d="M75.3,36.9L75.3,36.9c-0.9,0-1.5-0.7-1.5-1.5v-9.9c0-0.9,0.7-1.5,1.5-1.5l0,0c0.9,0,1.5,0.7,1.5,1.5v9.9
	C76.9,36.2,76.2,36.9,75.3,36.9z"/>
<path class="st0" d="M68.8,30.4L68.8,30.4c0-0.9,0.7-1.5,1.5-1.5h9.9c0.9,0,1.5,0.7,1.5,1.5l0,0c0,0.9-0.7,1.5-1.5,1.5h-9.9
	C69.5,32,68.8,31.3,68.8,30.4z"/>
</svg>
