<?xml version="1.0" encoding="utf-8"?>
<!-- Generator: Adobe Illustrator 26.2.1, SVG Export Plug-In . SVG Version: 6.00 Build 0)  -->
<svg version="1.1" id="圖層_1" xmlns="http://www.w3.org/2000/svg" xmlns:xlink="http://www.w3.org/1999/xlink" x="0px" y="0px"
	 viewBox="0 0 90 90" style="enable-background:new 0 0 90 90;" xml:space="preserve">
<style type="text/css">
	.st0{fill:#C7F0FF;}
</style>
<g>
	<path class="st0" d="M70.7,44.5c0-2.4-2.2-4.3-4.8-4.3c-1.2,0-2.3,0.4-3.2,1.1c-0.5-2.1-2.7-3.7-5.2-3.7c-1.7,0-3.3,0.7-4.3,1.9
		c-1-1.7-3-2.7-5.1-2.7c-1.5,0-2.9,0.5-4,1.5V22.9c0-2.6-2.4-4.7-5.3-4.7c-2.9,0-5.3,2.1-5.3,4.7V52c-1.3-2.4-3.5-5.2-7.5-7.1
		c-0.2-0.1-1.9-0.9-3.5-0.9c-0.8,0-1.5,0.2-2,0.6c-0.2,0.2-1,0.8-1.2,2.1c-0.3,1.4,0.2,3.1,1.5,4.9c0.6,1,5.4,9.4,6.6,12.9l0,0
		c0,0,1.6,4.2,3.7,8.5c2.3,4.7,4.5,7.7,6.5,9.2c-0.6,0.6-0.9,1.4-0.9,2.3c0,1.7,1.4,3.2,3.1,3.2h20.8c1.7,0,3.1-1.4,3.1-3.2
		c0-1-0.4-1.8-1.1-2.4c0.8-0.8,2-2.1,3.3-4.1c2-3.2,4.6-9,5.3-18.2C71.3,55.6,70.7,45.6,70.7,44.5z"/>
	<path class="st0" d="M27.1,22.5h-8.4c-0.5,0-0.9,0.2-1.3,0.5c-0.3,0.3-0.5,0.8-0.5,1.3c0,1,0.8,1.8,1.8,1.8h8.4
		c1,0,1.8-0.8,1.8-1.8C28.9,23.3,28.1,22.5,27.1,22.5z"/>
	<path class="st0" d="M31.5,14.5l-6-6C25.2,8.2,24.7,8,24.3,8c-0.5,0-0.9,0.2-1.3,0.5c-0.3,0.3-0.5,0.8-0.5,1.3
		c0,0.5,0.2,0.9,0.5,1.3l6,6c0.3,0.3,0.8,0.5,1.3,0.5c0.5,0,0.9-0.2,1.3-0.5C32.2,16.3,32.2,15.2,31.5,14.5z"/>
	<path class="st0" d="M40.5,4.2c0-1-0.8-1.8-1.8-1.8c-1,0-1.8,0.8-1.8,1.8v8.4c0,1,0.8,1.8,1.8,1.8c1,0,1.8-0.8,1.8-1.8L40.5,4.2z"
		/>
	<path class="st0" d="M55.1,9.8c0-0.5-0.2-0.9-0.5-1.3C54.2,8.2,53.8,8,53.3,8c-0.5,0-0.9,0.2-1.3,0.5l-6,6
		c-0.3,0.3-0.5,0.8-0.5,1.3c0,0.5,0.2,0.9,0.5,1.3c0.3,0.3,0.8,0.5,1.3,0.5c0.5,0,0.9-0.2,1.3-0.5l6-6C54.9,10.7,55.1,10.2,55.1,9.8
		z"/>
	<path class="st0" d="M58.9,22.5h-8.4c-1,0-1.8,0.8-1.8,1.8c0,1,0.8,1.8,1.8,1.8l8.4,0c1,0,1.8-0.8,1.8-1.8
		C60.7,23.3,59.9,22.5,58.9,22.5z"/>
</g>
</svg>
