<?xml version="1.0" encoding="utf-8"?>
<!-- Generator: Adobe Illustrator 26.2.1, SVG Export Plug-In . SVG Version: 6.00 Build 0)  -->
<svg version="1.1" id="圖層_1" xmlns="http://www.w3.org/2000/svg" xmlns:xlink="http://www.w3.org/1999/xlink" x="0px" y="0px"
	 viewBox="0 0 90 90" style="enable-background:new 0 0 90 90;" xml:space="preserve">
<style type="text/css">
	.st0{fill-rule:evenodd;clip-rule:evenodd;fill:#C7F0FF;}
	.st1{fill:#C7F0FF;}
</style>
<g>
	<path class="st0" d="M87.4,47.1L87.4,47.1l-0.1-1.6l-1.5-0.4c-9-2.2-9.2-10.7-9.2-11v-1.6l-1.6-0.4c-0.3-0.1-7.7-1.8-12.7-1.8
		c-5,0-12.4,1.7-12.7,1.8l-1.6,0.4v1.6c0,0.4-0.2,8.8-9.2,11l-1.5,0.4l-0.1,1.6c0,0.3-0.3,6.8,2.5,15c2.6,7.6,8.5,18,21.6,24.6
		l1,0.5l0.9-0.5c13.1-6.7,18.9-17.1,21.6-24.6C87.7,54,87.4,47.4,87.4,47.1L87.4,47.1z M52.1,35.9L52.1,35.9
		c2.3-0.5,6.9-1.3,10.1-1.3v24.1H43.1c-1.2-4.3-1.6-8-1.7-9.9C48.8,46.2,51.5,40,52.1,35.9L52.1,35.9z M62.5,82.5L62.5,82.5V59h19
		c-0.2,0.6-0.4,1.3-0.6,1.9C77.6,70.4,71.4,77.6,62.5,82.5L62.5,82.5z"/>
	<path class="st1" d="M36.4,67.5c-13.6-0.9-21.8-5.3-21.8-8.6v-0.8c4.5,3.2,12.3,5.3,20.4,5.9c0-0.1,0-0.1-0.1-0.2
		c-0.5-1.4-0.9-2.8-1.2-4.1c-9.7-1-16.2-3.9-18.4-6.5c5.2,1.5,11.4,2.3,17.5,2.4c-0.3-1.5-0.4-2.9-0.5-4.2
		c-15.9-0.3-25.6-5.2-25.6-8.8v-0.8c5.5,3.9,15.5,6,25.4,6.2c0-0.5,0-0.8,0-1.1l0.1-3c-15.8-0.3-25.5-5.2-25.5-8.8
		c0-1.9,2.7-4.1,7.1-5.7c5.5,4.4,16.8,6.8,27.6,6.8c0.3,0,0.7,0,1,0c0.3-0.9,0.4-1.6,0.4-2l0-2.1c-0.5,0-0.9,0-1.4,0
		c-16.7,0-26.9-5.1-26.9-8.8v-0.8c5.7,4.1,16.5,6.2,26.9,6.2c0.5,0,0.9,0,1.4,0v-0.2l5.6-1.3l0,0c1.7-0.4,8.8-1.9,13.9-1.9
		c0.2,0,0.4,0,0.5,0c2.1-0.8,3.9-1.7,5.4-2.8v0.8c0,0.7-0.4,1.5-1.2,2.3c1.6,0.2,3.2,0.4,4.6,0.7c0.5-0.9,0.7-1.9,0.7-3v-7.5
		c0-8.4-16-13-31-13s-31,4.5-31,13v7.5c0,1,0.2,1.9,0.6,2.8c-5.5,2.3-8.5,5.5-8.5,9.1v7.5c0,3.7,3.1,6.6,7.8,8.8v7.5
		c0,7.9,14,12.3,28.1,12.9C37.7,70.3,37,68.9,36.4,67.5z M41.4,6.9c16.7,0,26.9,5.1,26.9,8.8s-10.2,8.8-26.9,8.8
		c-16.7,0-26.9-5.1-26.9-8.8S24.8,6.9,41.4,6.9z"/>
</g>
</svg>
