<?xml version="1.0" encoding="utf-8"?>
<!-- Generator: Adobe Illustrator 26.2.1, SVG Export Plug-In . SVG Version: 6.00 Build 0)  -->
<svg version="1.1" id="圖層_1" xmlns="http://www.w3.org/2000/svg" xmlns:xlink="http://www.w3.org/1999/xlink" x="0px" y="0px"
	 viewBox="0 0 90 90" style="enable-background:new 0 0 90 90;" xml:space="preserve">
<style type="text/css">
	.st0{fill:#0090FF;}
</style>
<path class="st0" d="M63,1.6H27c-4.1,0-7.4,3.3-7.4,7.4v72c0,4.1,3.3,7.4,7.4,7.4h36c4.1,0,7.4-3.3,7.4-7.4V9
	C70.5,5,67.1,1.6,63,1.6z M36.9,7.7c0-0.9,0.7-1.6,1.6-1.6h13.4c0.9,0,1.6,0.7,1.6,1.6l0,0c0,0.9-0.7,1.6-1.6,1.6H38.5
	C37.6,9.3,36.9,8.6,36.9,7.7L36.9,7.7z M48.6,83h-6.8c-1.5,0-2.8-1.3-2.8-2.8s1.3-2.8,2.8-2.8h6.8c1.5,0,2.8,1.3,2.8,2.8
	S50.2,83,48.6,83z M65.2,72.1H24.8V13.6h40.3L65.2,72.1L65.2,72.1z"/>
</svg>
