<?xml version="1.0" encoding="utf-8"?>
<!-- Generator: Adobe Illustrator 26.2.1, SVG Export Plug-In . SVG Version: 6.00 Build 0)  -->
<svg version="1.1" id="圖層_1" xmlns="http://www.w3.org/2000/svg" xmlns:xlink="http://www.w3.org/1999/xlink" x="0px" y="0px"
	 viewBox="0 0 90 90" style="enable-background:new 0 0 90 90;" xml:space="preserve">
<style type="text/css">
	.st0{fill:#0090FF;}
</style>
<g>
	<g>
		<path class="st0" d="M46.8,80.1H19.3C13.6,80.1,9,75.5,9,69.8V14.4C9,8.7,13.6,4.1,19.3,4.1h32v3.7h-32c-3.6,0-6.6,3-6.6,6.6v55.4
			c0,3.6,3,6.6,6.6,6.6h27.5V80.1z"/>
	</g>
	<g>
		<rect x="66.1" y="22.7" class="st0" width="3.7" height="28.6"/>
	</g>
	<g>
		<path class="st0" d="M68,24.6H51.3c-1,0-1.9-0.8-1.9-1.9V5.9c0-0.8,0.5-1.4,1.2-1.7s1.5-0.1,2,0.4l16.7,16.8
			c0.5,0.5,0.7,1.3,0.4,2C69.4,24.1,68.7,24.6,68,24.6z M53.1,20.9h10.4L53.1,10.5V20.9z"/>
	</g>
	<g>
		<path class="st0" d="M37.1,25.1H24.2c-1,0-1.9-0.8-1.9-1.9V12.4c0-1,0.8-1.9,1.9-1.9h12.9c1,0,1.9,0.8,1.9,1.9v10.8
			C39,24.3,38.1,25.1,37.1,25.1z M26,21.4h9.2v-7.1H26V21.4z"/>
	</g>
	<g>
		<path class="st0" d="M59.7,33H19.1c-1,0-1.9-0.8-1.9-1.9c0-1,0.8-1.9,1.9-1.9h40.6c1,0,1.9,0.8,1.9,1.9C61.6,32.1,60.7,33,59.7,33
			z"/>
	</g>
	<g>
		<path class="st0" d="M59.7,42.4H19.1c-1,0-1.9-0.8-1.9-1.9s0.8-1.9,1.9-1.9h40.6c1,0,1.9,0.8,1.9,1.9S60.7,42.4,59.7,42.4z"/>
	</g>
	<g>
		<path class="st0" d="M44.5,51.9H19.1c-1,0-1.9-0.8-1.9-1.9c0-1,0.8-1.9,1.9-1.9h25.3c1,0,1.9,0.8,1.9,1.9
			C46.3,51.1,45.5,51.9,44.5,51.9z"/>
	</g>
	<g>
		<path class="st0" d="M37.9,61.3H19.1c-1,0-1.9-0.8-1.9-1.9c0-1,0.8-1.9,1.9-1.9h18.7c1,0,1.9,0.8,1.9,1.9
			C39.7,60.5,38.9,61.3,37.9,61.3z"/>
	</g>
	<g>
		<path class="st0" d="M37.1,70.8h-18c-1,0-1.9-0.8-1.9-1.9S18,67,19.1,67h18c1,0,1.9,0.8,1.9,1.9S38.1,70.8,37.1,70.8z"/>
	</g>
	<g>
		<path class="st0" d="M61.3,87.6c-10.9,0-19.7-8.8-19.7-19.7s8.8-19.7,19.7-19.7S81,57,81,67.9S72.2,87.6,61.3,87.6z M61.3,51.9
			c-8.8,0-16,7.2-16,16s7.2,16,16,16s16-7.2,16-16S70.1,51.9,61.3,51.9z"/>
	</g>
	<g>
		<path class="st0" d="M57.7,75.3L57.7,75.3c-0.5,0-1-0.2-1.3-0.6L52,70.2c-0.7-0.7-0.7-1.9,0.1-2.6c0.7-0.7,1.9-0.7,2.6,0.1l3,3.2
			l10.4-10.3c0.7-0.7,1.9-0.7,2.6,0s0.7,1.9,0,2.6L59,74.8C58.6,75.1,58.2,75.3,57.7,75.3z"/>
	</g>
</g>
</svg>
