<svg width="242" height="65" viewBox="0 0 242 65" fill="none" xmlns="http://www.w3.org/2000/svg">
<path d="M34.5049 65C52.4541 65 67.0049 50.4493 67.0049 32.5C67.0049 14.5507 52.4541 0 34.5049 0C16.5556 0 2.00488 14.5507 2.00488 32.5C2.00488 50.4493 16.5556 65 34.5049 65Z" fill="#26A17B"/>
<path d="M37.9533 35.4783C37.7443 35.4783 36.5425 35.5828 33.9822 35.5828C31.8922 35.5828 30.4814 35.5306 29.9589 35.4783C22.0691 35.1648 16.1125 33.754 16.1125 32.1343C16.1125 30.4622 22.0168 29.1037 29.9589 28.738V34.1198C30.4814 34.1721 31.9445 34.2243 34.0345 34.2243C36.4903 34.2243 37.7443 34.1198 37.9533 34.1198V28.738C45.8954 29.1037 51.7998 30.4622 51.7998 32.1343C51.7998 33.754 45.8954 35.1648 37.9533 35.4783ZM37.9533 28.1632V23.3561H49.0305V15.9888H18.934V23.3561H30.0112V28.1632C21.024 28.5812 14.2837 30.3577 14.2837 32.5C14.2837 34.6423 21.024 36.4188 30.0112 36.8368V52.3031H38.0056V36.8368C46.9927 36.4188 53.733 34.6423 53.733 32.5C53.6808 30.3577 46.9404 28.5812 37.9533 28.1632Z" fill="white"/>
<path d="M94.5931 17.9742V25.7596H102.169V31.6117H94.5409V43.4726C94.5409 46.0852 96.0039 47.3914 98.0939 47.3914C99.1389 47.3914 100.393 47.0779 101.386 46.5554L103.267 52.3553C101.333 53.139 99.7137 53.4525 97.6237 53.5048C91.6671 53.7138 87.7483 50.3175 87.7483 43.4726V31.664H82.6277V25.8119H87.7483V18.7058L94.5931 17.9742ZM225.429 25.4461L225.952 28.6334C228.094 25.2371 230.915 24.7146 233.685 24.7146C236.506 24.7146 239.276 25.8119 240.739 27.3271L237.656 33.2315C236.245 32.082 234.991 31.4549 232.744 31.4549C229.191 31.4549 225.899 33.336 225.899 38.4043V52.93H219.107V25.4461H225.429ZM208.761 36.0008C208.291 32.4477 205.522 30.6189 201.603 30.6189C197.945 30.6189 194.915 32.3955 193.922 36.0008H208.761ZM193.817 41.5916C194.288 44.9879 197.214 47.4437 202.021 47.4437C204.529 47.4437 207.821 46.5032 209.388 44.8834L213.725 49.168C210.851 52.1985 206.096 53.6093 201.916 53.6093C192.459 53.6093 186.816 47.7572 186.816 38.9268C186.816 30.5667 192.511 24.5578 201.446 24.5578C210.642 24.5578 216.39 30.2532 215.345 41.5394H193.817V41.5916ZM163.773 13.8987V29.1559C166.229 25.9686 169.26 25.0281 172.342 25.0281C180.128 25.0281 183.628 30.3054 183.628 38.4043V52.93H176.836V38.5088C176.836 33.4927 174.223 31.3504 170.566 31.3504C166.542 31.3504 163.773 34.7468 163.773 38.8746V52.93H156.981V13.8987H163.773ZM145.747 17.6607V25.4461H153.323V31.3504H145.694V43.2114C145.694 45.8239 147.157 47.1302 149.247 47.1302C150.292 47.1302 151.547 46.8167 152.539 46.2942L154.42 52.094C152.487 52.8778 150.867 53.1913 148.777 53.2435C142.821 53.4525 138.902 50.0562 138.902 43.2114V31.3504H133.781V25.4984H138.902V18.3923L145.747 17.6607ZM126.936 36.0008C126.466 32.4477 123.697 30.6189 119.778 30.6189C116.12 30.6189 113.09 32.3955 112.097 36.0008H126.936ZM111.993 41.5916C112.463 44.9879 115.389 47.4437 120.196 47.4437C122.704 47.4437 125.996 46.5032 127.563 44.8834L131.9 49.168C128.974 52.1985 124.272 53.6093 120.092 53.6093C110.634 53.6093 104.991 47.7572 104.991 38.9268C104.991 30.5667 110.686 24.5578 119.621 24.5578C128.817 24.5578 134.565 30.2532 133.52 41.5394H111.993V41.5916Z" fill="#222222"/>
</svg>
