<svg width="127" height="35" viewBox="0 0 127 35" fill="none" xmlns="http://www.w3.org/2000/svg">
<g clip-path="url(#clip0_30_333)">
<path fill-rule="evenodd" clip-rule="evenodd" d="M108.726 33.8586L126.86 17.2463L118.237 0.126709L108.726 33.8586Z" fill="#4F4F4F"/>
<path fill-rule="evenodd" clip-rule="evenodd" d="M102.639 33.8586L120.773 17.2463L112.15 0.126709L102.639 33.8586Z" fill="#878787"/>
<path fill-rule="evenodd" clip-rule="evenodd" d="M15.7733 0.380435L8.16465 27.6449L35.3023 27.8986L42.7842 0.507246H49.632L40.7552 32.337C40.3748 33.6051 39.1067 34.4928 37.8386 34.4928H2.96537C0.809576 34.4928 -0.45854 32.8442 0.175518 30.8152L8.6719 0.380435H15.7733ZM99.7226 0.126812H106.57L97.0596 34.3659H89.9581L99.7226 0.126812ZM50.3929 14.4565L84.7589 14.3297L87.0415 7.10145H52.1683L54.3241 0.380435L91.4799 0C93.7625 0 95.1574 1.77536 94.5234 4.05797L90.9726 16.8659C90.3386 19.1486 87.9291 20.9239 85.6465 20.9239H54.9581L51.2806 35H44.5596L50.3929 14.4565Z" fill="black"/>
</g>
<defs>
<clipPath id="clip0_30_333">
<rect width="126.812" height="35" fill="white" transform="translate(0.0488281)"/>
</clipPath>
</defs>
</svg>
