<svg width="221" height="55" viewBox="0 0 221 55" fill="none" xmlns="http://www.w3.org/2000/svg">
<path d="M22.6503 54.8969C19.0257 54.8969 15.8975 54.4004 13.266 53.4073C10.6344 52.3646 8.44963 50.9495 6.71178 49.162C5.02359 47.3249 3.75744 45.165 2.91335 42.6823C2.1189 40.15 1.72168 37.3695 1.72168 34.3407V2.24015H13.3404V33.3724C13.3404 35.4579 13.5639 37.2454 14.0107 38.7349C14.5073 40.1749 15.1528 41.3665 15.9472 42.3099C16.7913 43.2037 17.7844 43.8492 18.9264 44.2464C20.118 44.6436 21.409 44.8422 22.7993 44.8422C25.6295 44.8422 27.9135 43.9733 29.6514 42.2355C31.4389 40.4976 32.3326 37.5433 32.3326 33.3724V2.24015H43.9514V34.3407C43.9514 37.3695 43.5293 40.15 42.6852 42.6823C41.8411 45.2146 40.5502 47.3993 38.8123 49.2365C37.0745 51.024 34.8649 52.4143 32.1837 53.4073C29.5024 54.4004 26.3246 54.8969 22.6503 54.8969Z" fill="#222222"/>
<path d="M69.2021 44.9912C70.8407 44.9912 72.1813 44.8671 73.224 44.6188C74.3164 44.3209 75.1853 43.9485 75.8308 43.5016C76.4763 43.0051 76.9231 42.4341 77.1714 41.7886C77.4197 41.1431 77.5438 40.4231 77.5438 39.6287C77.5438 37.9405 76.7494 36.5502 75.1605 35.4579C73.5716 34.3158 70.8407 33.0993 66.9678 31.8084C65.2796 31.2125 63.5914 30.5422 61.9032 29.7974C60.215 29.003 58.7006 28.0348 57.36 26.8927C56.0193 25.7011 54.927 24.286 54.0829 22.6474C53.2388 20.9592 52.8167 18.9235 52.8167 16.5401C52.8167 14.1568 53.2636 12.0217 54.1573 10.1349C55.0511 8.19848 56.3172 6.55994 57.9558 5.21931C59.5943 3.87869 61.5804 2.86081 63.9141 2.16567C66.2478 1.42087 68.8794 1.04848 71.8089 1.04848C75.2846 1.04848 78.2886 1.42087 80.8209 2.16567C83.3532 2.91046 85.4386 3.72973 87.0771 4.62348L83.7256 13.7844C82.2856 13.0396 80.6719 12.3941 78.8844 11.848C77.1466 11.2521 75.0363 10.9542 72.5537 10.9542C69.7731 10.9542 67.7622 11.3514 66.5209 12.1459C65.3292 12.8907 64.7334 14.0575 64.7334 15.6464C64.7334 16.5898 64.9568 17.3842 65.4037 18.0297C65.8506 18.6752 66.4712 19.271 67.2657 19.8172C68.1098 20.3138 69.0532 20.7855 70.0959 21.2323C71.1882 21.6296 72.3799 22.0516 73.6709 22.4985C76.3521 23.4915 78.6858 24.4846 80.6719 25.4776C82.658 26.421 84.2966 27.5382 85.5876 28.8292C86.9282 30.1202 87.9212 31.6346 88.5667 33.3724C89.2122 35.1103 89.535 37.2205 89.535 39.7032C89.535 44.5195 87.8468 48.2683 84.4704 50.9495C81.094 53.5811 76.0046 54.8969 69.2021 54.8969C66.9181 54.8969 64.8575 54.748 63.0204 54.45C61.1832 54.2018 59.5447 53.879 58.1047 53.4818C56.7145 53.0846 55.498 52.6625 54.4553 52.2157C53.4622 51.7688 52.6181 51.3467 51.923 50.9495L55.2001 41.7141C56.7393 42.5582 58.6261 43.3278 60.8605 44.023C63.1445 44.6684 65.925 44.9912 69.2021 44.9912Z" fill="#222222"/>
<path d="M110.094 44.3954C110.64 44.445 111.26 44.4947 111.956 44.5443C112.7 44.5443 113.569 44.5443 114.562 44.5443C120.372 44.5443 124.667 43.0796 127.447 40.15C130.277 37.2205 131.692 33.1738 131.692 28.0099C131.692 22.5978 130.352 18.5014 127.671 15.7209C124.989 12.9403 120.744 11.55 114.935 11.55C114.14 11.55 113.321 11.5749 112.477 11.6245C111.633 11.6245 110.838 11.6742 110.094 11.7735V44.3954ZM143.684 28.0099C143.684 32.4787 142.988 36.3764 141.598 39.7032C140.208 43.0299 138.222 45.7856 135.64 47.9703C133.108 50.1551 130.004 51.7936 126.33 52.886C122.656 53.9783 118.535 54.5245 113.966 54.5245C111.881 54.5245 109.448 54.4252 106.667 54.2266C103.887 54.0776 101.156 53.7301 98.4748 53.1839V2.91046C101.156 2.41393 103.937 2.09119 106.816 1.94223C109.746 1.74362 112.253 1.64431 114.339 1.64431C118.758 1.64431 122.755 2.14084 126.33 3.13389C129.955 4.12695 133.058 5.69101 135.64 7.82608C138.222 9.96115 140.208 12.6921 141.598 16.0188C142.988 19.3455 143.684 23.3426 143.684 28.0099Z" fill="#222222"/>
<path d="M168.955 26.148C170.097 26.148 171.288 26.0486 172.53 25.85C173.771 25.6018 174.69 25.279 175.285 24.8818V24.2115C175.285 24.0129 175.285 23.8143 175.285 23.6157C175.335 23.4171 175.36 23.2433 175.36 23.0943C175.31 21.3068 175.161 19.6434 174.913 18.1042C174.665 16.5153 174.243 15.1499 173.647 14.0079C173.051 12.8162 172.232 11.8976 171.189 11.2521C170.196 10.557 168.955 10.2094 167.465 10.2094C166.274 10.2094 165.231 10.4577 164.337 10.9542C163.443 11.4507 162.723 12.0962 162.177 12.8907C161.631 13.6851 161.209 14.554 160.911 15.4974C160.663 16.4408 160.539 17.3594 160.539 18.2532C160.539 20.9344 161.184 22.9205 162.475 24.2115C163.816 25.5025 165.976 26.148 168.955 26.148ZM174.392 33.3724C173.349 33.869 172.182 34.2414 170.891 34.4896C169.65 34.6882 168.582 34.7875 167.689 34.7875C164.461 34.7875 161.705 34.4151 159.421 33.6703C157.137 32.8759 155.251 31.7835 153.761 30.3933C152.321 28.9533 151.254 27.2403 150.558 25.2542C149.863 23.2681 149.516 21.0834 149.516 18.7C149.516 16.7139 149.838 14.6782 150.484 12.5927C151.179 10.5073 152.247 8.62053 153.687 6.93233C155.126 5.19449 156.939 3.77938 159.124 2.68702C161.358 1.54501 164.039 0.973999 167.167 0.973999C173.572 0.973999 178.389 2.96011 181.616 6.93233C184.893 10.8549 186.532 16.5153 186.532 23.9136C186.532 28.7796 185.886 33.0745 184.595 36.7985C183.354 40.5224 181.393 43.6506 178.712 46.1829C176.08 48.7151 172.704 50.6516 168.582 51.9922C164.461 53.2832 159.57 53.9535 153.91 54.0032C153.86 52.4143 153.786 50.875 153.687 49.3855C153.587 47.8959 153.488 46.3566 153.389 44.7677C156.219 44.7181 158.776 44.5195 161.06 44.1719C163.344 43.7747 165.355 43.154 167.093 42.3099C168.831 41.4162 170.295 40.2493 171.487 38.8094C172.728 37.3695 173.697 35.5572 174.392 33.3724Z" fill="#222222"/>
<path d="M194.975 12.9651C196.415 12.3693 197.904 11.699 199.443 10.9542C201.032 10.1598 202.572 9.31567 204.061 8.42192C205.551 7.47851 206.966 6.51028 208.307 5.51723C209.697 4.47452 210.938 3.38216 212.03 2.24015H219.776V53.8542H208.679V16.6891C207.189 17.6822 205.526 18.6007 203.689 19.4448C201.852 20.2393 200.064 20.9344 198.326 21.5303L194.975 12.9651Z" fill="#222222"/>
</svg>
